/* XPM */
static char * c_32_xpm[] = {
"32 32 5 1",
". c #2A2F36",
"# c #3CE870",
"+ c #1D9A46",
"* c #FFFFFF",
"- c #0B5A23",
"................................",
"................................",
"..............####..............",
"............########............",
"...........##########...........",
"..........###******###..........",
".........##**######**##.........",
"........##**########**##........",
"........##**########**##........",
"........##**########**##........",
"........##**########**##........",
".........##**######**##.........",
"..........###******###..........",
"...........##########...........",
"............########............",
"..............####..............",
"................................",
".............* C *..............",
"..............***...............",
"................................",
"................................",
"................................",
"................................",
"................................",
"................................",
"................................",
"................................",
"................................",
"................................",
"................................",
"................................",
"................................"
};