/* XPM */
static char *collectible_32_xpm[] = {
"32 32 4 1",
". c #44CC44",  /* sfondo verde medio */
"# c #00AA00",  /* bordo verde scuro */
"* c #006600",  /* V verde molto scuro */
"- c #003300",  /* opzionale: verde molto scuro (non usato) */
"################################",
"################################",
"##............................##",
"##............................##",
"##............................##",
"##............................##",
"##............................##",
"##............................##",
"##............................##",
"##......****........****......##",
"##......****........****......##",
"##.......****......****.......##",
"##.......****......****.......##",
"##........****....****........##",
"##........****....****........##",
"##.........****..****.........##",
"##.........****..****.........##",
"##..........********..........##",
"##..........********..........##",
"##...........******...........##",
"##...........******...........##",
"##............****............##",
"##............****............##",
"##............................##",
"##............................##",
"##............................##",
"##............................##",
"##............................##",
"##............................##",
"##............................##",
"################################",
"################################"
};
