/* XPM */
static char * enemy_32_xpm[] = {
"32 32 4 1",
". c #CC4444",
"# c #AA0000",
"* c #660000",
"- c #330000",
"################################",
"################################",
"##............................##",
"##............................##",
"##............................##",
"##............................##",
"##............................##",
"##............................##",
"##......****........****......##",
"##.......****......****.......##",
"##........****....****........##",
"##.........****..****.........##",
"##..........********..........##",
"##...........******...........##",
"##............****............##",
"##............****............##",
"##............****............##",
"##............****............##",
"##...........******...........##",
"##..........********..........##",
"##.........****..****.........##",
"##........****....****........##",
"##.......****......****.......##",
"##......****........****......##",
"##............................##",
"##............................##",
"##............................##",
"##............................##",
"##............................##",
"##............................##",
"################################",
"################################"
};