/* XPM */
static char * exit_32_xpm[] = {
"32 32 3 1",
". c #1F2328",
"# c #B8860B",
"+ c #FFD700",
"################################",
"################################",
"##+++++++++++++++++++++++++++###",
"##+++++++++++++++++++++++++++###",
"##+++++++++++++++++++++++++++###",
"##+++++++++++++++++++++++++++###",
"##+++++++++++++++++++++++++++###",
"##+++++++++++++++++++++++++++###",
"##+++++++++++++++++++++++++++###",
"##+++++++++++++++++++++++++++###",
"##+++++++++++++++++++++++++++###",
"##+++++++++++++++++++++++++++###",
"##+++++++++++++++++++++++++++###",
"##+++++++++++++++++++++++++++###",
"##+++++++++++++++++++++++++++###",
"##+++++++++++++++++++++++++++###",
"##+++++++++++++++++++++++++++###",
"##+++++++++++++++++++++++++++###",
"##+++++++++++++++++++++++++++###",
"##+++++++++++++++++++++++++++###",
"##+++++++++++++++++++++++++++###",
"##+++++++++++++++++++++++++++###",
"##+++++++++++++++++++++++++++###",
"##+++++++++++++++++++++++++++###",
"##+++++++++++++++++++++++++++###",
"##+++++++++++++++++++++++++++###",
"##+++++++++++++++++++++++++++###",
"##+++++++++++++++++++++++++++###",
"##+++++++++++++++++++++++++++###",
"##+++++++++++++++++++++++++++###",
"################################",
"################################"
};