/* XPM */
static char *player_42_walk_32_xpm[] = {
"32 32 2 1",
". c #FFFFFF",   /* sfondo bianco */
"# c #000000",   /* logo nero */
"################################",
"#..............................#",
"#..............................#",
"#..............................#",
"#..............................#",
"#..............................#",
"#..............................#",
"#..............................#",
"#..............................#",
"#..............................#",
"#..............................#",
"#..............................#",
"#..............................#",
"#.....##....##....########.....#",
"#.....##....##..........##.....#",
"#.....##....##..........##.....#",
"#.....########........##.......#",
"#...........##......##.........#",
"#...........##....##...........#",
"#...........##....########.....#",
"#..............................#",
"#..............................#",
"#..............................#",
"#..............................#",
"#..............................#",
"#..............................#",
"#..............................#",
"#..............................#",
"#..............................#",
"#..............................#",
"#..............................#",
"################################"
};