/* XPM */
static char * player_walk_32_xpm[] = {
"32 32 5 1",
". c #2A2F36",
"# c #38E1FF",
"+ c #0E9CBD",
"* c #073B47",
"- c #FFFFFF",
"................................",
"................................",
"..............##................",
"............######..............",
"...........########.............",
"..........##########............",
".........####++#######..........",
"........####++++#+####..........",
".......####*++*+*+####..........",
"......####**+***+*####..........",
".....####***+***+**####.........",
"....####****+*+****####.........",
"...####*****+#+*****####........",
"..####******#*******####........",
".####*******+*******####........",
"####********#*******###.........",
"####*******#+*******###.........",
"####******#*+*******###.........",
"####*****#+**+******###.........",
"####****#***+*******###.........",
"####***#****+*******###.........",
"####**#*****+*******###.........",
"####*#******+*******###.........",
"####*#******+*******###.........",
"#####*******+*******###.........",
"..............##................",
"................................",
".............------.............",
".............-PEER-.............",
".............------.............",
"................................",
"................................"
};