/* XPM */
static char *player_peer_walk_32_xpm[] = {
"32 32 3 1",
". c None",
"# c #FFFFFF",
"= c #2B2B2B",
"################################",
"#..............................#",
"#..............................#",
"#..............................#",
"#..............................#",
"#..............................#",
"#..............................#",
"#.....##....##....########.....#",
"#.....##....##..........##.....#",
"#.....##....##..........##.....#",
"#.....##....##........##.......#",
"#.....########......##.........#",
"#...........##....##...........#",
"#...........##....########.....#",
"#...........##.................#",
"#...........##.................#",
"#..............................#",
"#..............................#",
"#..............................#",
"#..............................#",
"#..............................#",
"#..............................#",
"#..............................#",
"#..............................#",
"#.............========.........#",
"#............==========........#",
"#.............========.........#",
"#..............................#",
"#..............................#",
"#..............................#",
"#..............................#",
"################################"
};