/* XPM */
static char * player_peer_better_32_xpm[] = {
"32 32 5 1",
". c #2A2F36",
"# c #FFD700",
"+ c #8B4513",
"* c #FF69B4",
"- c #FFFFFF",
"................................",
"................................",
"...............###..............",
"..............#####.............",
"..............#####.............",
"..............#####.............",
"...............###..............",
"................................",
".............+++++++............",
"............+++++++++...........",
"...........+++++++++++..........",
"..........++++++++++++..........",
".........+++++++++++++..........",
"........++++++++++++++..........",
".......+++++++++++++++..........",
"......++++++++++++++++..........",
".....+++++++++++++++++..........",
"....++++++++++++++++++..........",
"...+++++++++++++++++++..........",
"..++++++++++++++++++++..........",
".+++++++++++++++++++++..........",
"+++++++++++++++++++++++.........",
"+++++++++++++++++++++++.........",
"+++++++++++++++++++++++.........",
"+++++++++++++++++++++++.........",
"................................",
".............------.............",
".............-PEER-.............",
".............------.............",
"................................",
"................................",
"................................"
};