/* XPM */
static char * player_idle_32_xpm[] = {
"32 32 6 1",
". c #2A2F36",
"# c #FFD4A3",
"+ c #8B4513",
"* c #1E90FF",
"- c #FFFFFF",
"o c #000000",
"................................",
"................................",
"...............###..............",
"..............#####.............",
"..............##o##.............",
"..............#####.............",
"...............###..............",
"................................",
".............+++++++............",
"............+++***+++...........",
"...........++*******++..........",
"..........++*********++.........",
".........++***********++........",
"........++*************++.......",
".......++***************++......",
"......++*****************++.....",
".....++*******************++....",
"....++*********************++...",
"...++***********************++..",
"..++*************************++.",
".++***************************++",
"++*****************************+",
"++*****************************+",
"++***++*******************++***+",
"+++++..++***************++..++++",
".......**+++*********+++**.....+",
"........+++++*******+++++......+",
"..........+++*******+++........+",
".............*******............",
"..............***...............",
"................................",
"................................"
};